<?xml version="1.0" encoding="UTF-8" standalone="no"?>
<svg
   xmlns:dc="http://purl.org/dc/elements/1.1/"
   xmlns:cc="http://creativecommons.org/ns#"
   xmlns:rdf="http://www.w3.org/1999/02/22-rdf-syntax-ns#"
   xmlns:svg="http://www.w3.org/2000/svg"
   xmlns="http://www.w3.org/2000/svg"
   xmlns:xlink="http://www.w3.org/1999/xlink"
   xmlns:sodipodi="http://sodipodi.sourceforge.net/DTD/sodipodi-0.dtd"
   xmlns:inkscape="http://www.inkscape.org/namespaces/inkscape"
   xml:space="preserve"
   version="1.1"
   id="Layer_1"
   x="0px"
   y="0px"
   width="555px"
   height="275px"
   viewBox="0 0 555 275"
   enable-background="new 0 0 555 275"
   inkscape:version="0.48.4 r9939"
   sodipodi:docname="camion3.svg"><metadata
     id="metadata135"><rdf:RDF><cc:Work
         rdf:about=""><dc:format>image/svg+xml</dc:format><dc:type
           rdf:resource="http://purl.org/dc/dcmitype/StillImage" /><dc:title></dc:title></cc:Work></rdf:RDF></metadata><defs
     id="defs133"><linearGradient
       inkscape:collect="always"
       xlink:href="#path18997_1_"
       id="linearGradient3203"
       gradientUnits="userSpaceOnUse"
       gradientTransform="matrix(0.3127,0,0,-0.3111,119.385,-23.2806)"
       x1="431.13959"
       y1="-1050.063"
       x2="1308.8018"
       y2="-1056.051" /><linearGradient
       inkscape:collect="always"
       xlink:href="#path18999_1_"
       id="linearGradient3205"
       gradientUnits="userSpaceOnUse"
       gradientTransform="matrix(-0.3157,0,0,-0.3111,501.8117,-28.4525)"
       x1="961.58112"
       y1="-1041.6514"
       x2="-55.2145"
       y2="-1041.6515" /><linearGradient
       inkscape:collect="always"
       xlink:href="#path19001_1_"
       id="linearGradient3207"
       gradientUnits="userSpaceOnUse"
       gradientTransform="matrix(-0.3071,0,0,-0.3061,496.5487,-27.5201)"
       x1="952.62402"
       y1="-1053.5269"
       x2="-64.178497"
       y2="-1053.527" /><linearGradient
       inkscape:collect="always"
       xlink:href="#path19003_1_"
       id="linearGradient3209"
       gradientUnits="userSpaceOnUse"
       gradientTransform="matrix(0.3742,0,0,-0.6546,139.0009,-138.5982)"
       x1="404.70999"
       y1="-608.59772"
       x2="870.54791"
       y2="-608.59772" /><linearGradient
       inkscape:collect="always"
       xlink:href="#path19005_1_"
       id="linearGradient3211"
       gradientUnits="userSpaceOnUse"
       gradientTransform="matrix(0.3735,0,0,-0.2111,139.2679,-27.0805)"
       x1="343.64941"
       y1="-1314.2461"
       x2="965.63751"
       y2="-1314.2461" /><linearGradient
       inkscape:collect="always"
       xlink:href="#path19009_1_"
       id="linearGradient3213"
       gradientUnits="userSpaceOnUse"
       gradientTransform="matrix(0.3111,0,0,-0.3111,120.5321,-23.2806)"
       x1="90.9702"
       y1="-904.46832"
       x2="646.03918"
       y2="-904.46832" /><linearGradient
       inkscape:collect="always"
       xlink:href="#path19013_1_"
       id="linearGradient3215"
       gradientUnits="userSpaceOnUse"
       gradientTransform="matrix(0.8358,0,0,-0.8358,-259.4778,-159.8405)"
       x1="501.21881"
       y1="-504.05371"
       x2="673.05408"
       y2="-504.05371" /><linearGradient
       inkscape:collect="always"
       xlink:href="#path19015_1_"
       id="linearGradient3217"
       gradientUnits="userSpaceOnUse"
       gradientTransform="matrix(0.8363,0,0,-0.6916,-259.8004,-122.505)"
       x1="501.19821"
       y1="-667.50537"
       x2="673.03778"
       y2="-667.50537" /><linearGradient
       inkscape:collect="always"
       xlink:href="#path19017_1_"
       id="linearGradient3219"
       gradientUnits="userSpaceOnUse"
       gradientTransform="matrix(0.3229,0,0,-0.3111,115.1746,-23.2806)"
       x1="-116.4907"
       y1="-1179.6943"
       x2="721.50342"
       y2="-1179.6943" /><linearGradient
       inkscape:collect="always"
       xlink:href="#path19023_1_"
       id="linearGradient3221"
       gradientUnits="userSpaceOnUse"
       gradientTransform="matrix(0.8358,0,0,-0.8358,-250.18,-160.1296)"
       x1="619.30573"
       y1="-510.19781"
       x2="593.67719"
       y2="-510.755" /><linearGradient
       inkscape:collect="always"
       xlink:href="#rect19029_1_"
       id="linearGradient3223"
       gradientUnits="userSpaceOnUse"
       gradientTransform="matrix(0.8354,0.0233,0.0254,-0.7643,-273.597,-144.409)"
       x1="554.18158"
       y1="-492.42679"
       x2="568.58649"
       y2="-491.98801" /><linearGradient
       inkscape:collect="always"
       xlink:href="#rect19031_1_"
       id="linearGradient3225"
       gradientUnits="userSpaceOnUse"
       gradientTransform="matrix(0.8354,0.0233,0.0254,-0.7643,-273.9105,-121.1287)"
       x1="555.36823"
       y1="-557.93018"
       x2="569.77698"
       y2="-557.49127" /><linearGradient
       inkscape:collect="always"
       xlink:href="#path19063_1_"
       id="linearGradient3227"
       gradientUnits="userSpaceOnUse"
       gradientTransform="matrix(0.8358,0,0,-0.8358,-259.4778,-159.8405)"
       x1="363.23929"
       y1="-531.98291"
       x2="355.00641"
       y2="-531.98291" /><linearGradient
       inkscape:collect="always"
       xlink:href="#path19065_1_"
       id="linearGradient3229"
       gradientUnits="userSpaceOnUse"
       gradientTransform="matrix(0.8358,0,0,-0.8358,-259.4778,-159.8405)"
       x1="362.25589"
       y1="-533.91553"
       x2="434.97311"
       y2="-533.91553" /><linearGradient
       inkscape:collect="always"
       xlink:href="#path19067_1_"
       id="linearGradient3231"
       gradientUnits="userSpaceOnUse"
       gradientTransform="matrix(0.8358,0,0,-0.8358,-259.4778,-159.8405)"
       x1="358.7695"
       y1="-529.43073"
       x2="377.96371"
       y2="-529.43073" /><linearGradient
       inkscape:collect="always"
       xlink:href="#path19069_1_"
       id="linearGradient3233"
       gradientUnits="userSpaceOnUse"
       gradientTransform="matrix(0.2798,0,0,-0.3111,32.2358,-23.2806)"
       x1="-19.7173"
       y1="-1082.8267"
       x2="650.44873"
       y2="-1082.8267" /><linearGradient
       inkscape:collect="always"
       xlink:href="#path19099_1_"
       id="linearGradient3235"
       gradientUnits="userSpaceOnUse"
       gradientTransform="matrix(0.2798,0,0,-0.3111,141.3061,-23.2806)"
       x1="819.18457"
       y1="-1082.8267"
       x2="1489.3645"
       y2="-1082.8267" /><linearGradient
       id="path18997_1_"
       gradientUnits="userSpaceOnUse"
       x1="431.13959"
       y1="-1050.063"
       x2="1308.8018"
       y2="-1056.051"
       gradientTransform="matrix(0.3127,0,0,-0.3111,119.385,-23.2806)"><stop
         offset="0"
         style="stop-color:#94A7AC"
         id="stop8" /><stop
         offset="1"
         style="stop-color:#1B3D6D"
         id="stop10" /></linearGradient><linearGradient
       id="path18999_1_"
       gradientUnits="userSpaceOnUse"
       x1="961.58112"
       y1="-1041.6514"
       x2="-55.2145"
       y2="-1041.6515"
       gradientTransform="matrix(-0.3157,0,0,-0.3111,501.8117,-28.4525)"><stop
         offset="0"
         style="stop-color:#94A7AC"
         id="stop14" /><stop
         offset="1"
         style="stop-color:#1B3D6D"
         id="stop16" /></linearGradient><linearGradient
       id="path19001_1_"
       gradientUnits="userSpaceOnUse"
       x1="952.62402"
       y1="-1053.5269"
       x2="-64.178497"
       y2="-1053.527"
       gradientTransform="matrix(-0.3071,0,0,-0.3061,496.5487,-27.5201)"><stop
         offset="0"
         style="stop-color:#94A7AC"
         id="stop20" /><stop
         offset="1"
         style="stop-color:#1B3D6D"
         id="stop22" /></linearGradient><linearGradient
       id="path19003_1_"
       gradientUnits="userSpaceOnUse"
       x1="404.70999"
       y1="-608.59772"
       x2="870.54791"
       y2="-608.59772"
       gradientTransform="matrix(0.3742,0,0,-0.6546,139.0009,-138.5982)"><stop
         offset="0"
         style="stop-color:#94A7AC"
         id="stop26" /><stop
         offset="1"
         style="stop-color:#3C5F86"
         id="stop28" /></linearGradient><linearGradient
       id="path19005_1_"
       gradientUnits="userSpaceOnUse"
       x1="343.64941"
       y1="-1314.2461"
       x2="965.63751"
       y2="-1314.2461"
       gradientTransform="matrix(0.3735,0,0,-0.2111,139.2679,-27.0805)"><stop
         offset="0"
         style="stop-color:#94A7AC"
         id="stop32" /><stop
         offset="1"
         style="stop-color:#3C5F86"
         id="stop34" /></linearGradient><linearGradient
       id="path19009_1_"
       gradientUnits="userSpaceOnUse"
       x1="90.9702"
       y1="-904.46832"
       x2="646.03918"
       y2="-904.46832"
       gradientTransform="matrix(0.3111,0,0,-0.3111,120.5321,-23.2806)"><stop
         offset="0"
         style="stop-color:#94A7AC"
         id="stop38" /><stop
         offset="1"
         style="stop-color:#193E6D"
         id="stop40" /></linearGradient><linearGradient
       id="path19013_1_"
       gradientUnits="userSpaceOnUse"
       x1="501.21881"
       y1="-504.05371"
       x2="673.05408"
       y2="-504.05371"
       gradientTransform="matrix(0.8358,0,0,-0.8358,-259.4778,-159.8405)"><stop
         offset="0"
         style="stop-color:#94A7AC"
         id="stop45" /><stop
         offset="1"
         style="stop-color:#193E6D"
         id="stop47" /></linearGradient><linearGradient
       id="path19015_1_"
       gradientUnits="userSpaceOnUse"
       x1="501.19821"
       y1="-667.50537"
       x2="673.03778"
       y2="-667.50537"
       gradientTransform="matrix(0.8363,0,0,-0.6916,-259.8004,-122.505)"><stop
         offset="0"
         style="stop-color:#94A7AC"
         id="stop51" /><stop
         offset="1"
         style="stop-color:#193E6D"
         id="stop53" /></linearGradient><linearGradient
       id="path19017_1_"
       gradientUnits="userSpaceOnUse"
       x1="-116.4907"
       y1="-1179.6943"
       x2="721.50342"
       y2="-1179.6943"
       gradientTransform="matrix(0.3229,0,0,-0.3111,115.1746,-23.2806)"><stop
         offset="0"
         style="stop-color:#94A7AC"
         id="stop57" /><stop
         offset="1"
         style="stop-color:#3C5F86"
         id="stop59" /></linearGradient><linearGradient
       id="path19023_1_"
       gradientUnits="userSpaceOnUse"
       x1="619.30573"
       y1="-510.19781"
       x2="593.67719"
       y2="-510.755"
       gradientTransform="matrix(0.8358,0,0,-0.8358,-250.18,-160.1296)"><stop
         offset="0"
         style="stop-color:#989898"
         id="stop64" /><stop
         offset="1"
         style="stop-color:#C8BEB7"
         id="stop66" /></linearGradient><linearGradient
       id="rect19029_1_"
       gradientUnits="userSpaceOnUse"
       x1="554.18158"
       y1="-492.42679"
       x2="568.58649"
       y2="-491.98801"
       gradientTransform="matrix(0.8354,0.0233,0.0254,-0.7643,-273.597,-144.409)"><stop
         offset="0"
         style="stop-color:#94A7AC"
         id="stop72" /><stop
         offset="1"
         style="stop-color:#193E6D"
         id="stop74" /></linearGradient><linearGradient
       id="rect19031_1_"
       gradientUnits="userSpaceOnUse"
       x1="555.36823"
       y1="-557.93018"
       x2="569.77698"
       y2="-557.49127"
       gradientTransform="matrix(0.8354,0.0233,0.0254,-0.7643,-273.9105,-121.1287)"><stop
         offset="0"
         style="stop-color:#94A7AC"
         id="stop78" /><stop
         offset="1"
         style="stop-color:#193E6D"
         id="stop80" /></linearGradient><linearGradient
       id="path19063_1_"
       gradientUnits="userSpaceOnUse"
       x1="363.23929"
       y1="-531.98291"
       x2="355.00641"
       y2="-531.98291"
       gradientTransform="matrix(0.8358,0,0,-0.8358,-259.4778,-159.8405)"><stop
         offset="0"
         style="stop-color:#CDCCCC"
         id="stop93" /><stop
         offset="1"
         style="stop-color:#FFFFFF"
         id="stop95" /></linearGradient><linearGradient
       id="path19065_1_"
       gradientUnits="userSpaceOnUse"
       x1="362.25589"
       y1="-533.91553"
       x2="434.97311"
       y2="-533.91553"
       gradientTransform="matrix(0.8358,0,0,-0.8358,-259.4778,-159.8405)"><stop
         offset="0"
         style="stop-color:#94A7AC"
         id="stop99" /><stop
         offset="1"
         style="stop-color:#1F4876"
         id="stop101" /></linearGradient><linearGradient
       id="path19067_1_"
       gradientUnits="userSpaceOnUse"
       x1="358.7695"
       y1="-529.43073"
       x2="377.96371"
       y2="-529.43073"
       gradientTransform="matrix(0.8358,0,0,-0.8358,-259.4778,-159.8405)"><stop
         offset="0"
         style="stop-color:#94A7AC"
         id="stop105" /><stop
         offset="1"
         style="stop-color:#1F4876"
         id="stop107" /></linearGradient><linearGradient
       id="path19069_1_"
       gradientUnits="userSpaceOnUse"
       x1="-19.7173"
       y1="-1082.8267"
       x2="650.44873"
       y2="-1082.8267"
       gradientTransform="matrix(0.2798,0,0,-0.3111,32.2358,-23.2806)"><stop
         offset="0"
         style="stop-color:#94A7AC"
         id="stop111" /><stop
         offset="1"
         style="stop-color:#1F4876"
         id="stop113" /></linearGradient><linearGradient
       id="path19099_1_"
       gradientUnits="userSpaceOnUse"
       x1="819.18457"
       y1="-1082.8267"
       x2="1489.3645"
       y2="-1082.8267"
       gradientTransform="matrix(0.2798,0,0,-0.3111,141.3061,-23.2806)"><stop
         offset="0"
         style="stop-color:#94A7AC"
         id="stop126" /><stop
         offset="1"
         style="stop-color:#1F4876"
         id="stop128" /></linearGradient><linearGradient
       inkscape:collect="always"
       xlink:href="#path19099_1_"
       id="linearGradient3218"
       gradientUnits="userSpaceOnUse"
       gradientTransform="matrix(-0.2798,0,0,-0.3111,418.25681,-170.14778)"
       x1="819.18457"
       y1="-1082.8267"
       x2="1489.3645"
       y2="-1082.8267" /><linearGradient
       inkscape:collect="always"
       xlink:href="#path19069_1_"
       id="linearGradient3222"
       gradientUnits="userSpaceOnUse"
       gradientTransform="matrix(-0.2798,0,0,-0.3111,518.08492,-172.14778)"
       x1="-19.7173"
       y1="-1082.8267"
       x2="650.44873"
       y2="-1082.8267" /><linearGradient
       inkscape:collect="always"
       xlink:href="#path19067_1_"
       id="linearGradient3226"
       gradientUnits="userSpaceOnUse"
       gradientTransform="matrix(-0.8358,0,0,-0.8358,815.25946,-307.26237)"
       x1="358.7695"
       y1="-529.43073"
       x2="377.96371"
       y2="-529.43073" /><linearGradient
       inkscape:collect="always"
       xlink:href="#path19065_1_"
       id="linearGradient3230"
       gradientUnits="userSpaceOnUse"
       gradientTransform="matrix(-0.8358,0,0,-0.8358,815.25946,-307.26237)"
       x1="362.25589"
       y1="-533.91553"
       x2="434.97311"
       y2="-533.91553" /><linearGradient
       inkscape:collect="always"
       xlink:href="#path19063_1_"
       id="linearGradient3234"
       gradientUnits="userSpaceOnUse"
       gradientTransform="matrix(-0.8358,0,0,-0.8358,815.25946,-307.26237)"
       x1="363.23929"
       y1="-531.98291"
       x2="355.00641"
       y2="-531.98291" /><linearGradient
       inkscape:collect="always"
       xlink:href="#rect19031_1_"
       id="linearGradient3237"
       gradientUnits="userSpaceOnUse"
       gradientTransform="matrix(-0.8354,0.0233,-0.0254,-0.7643,829.69216,-268.55057)"
       x1="555.36823"
       y1="-557.93018"
       x2="569.77698"
       y2="-557.49127" /><linearGradient
       inkscape:collect="always"
       xlink:href="#rect19029_1_"
       id="linearGradient3240"
       gradientUnits="userSpaceOnUse"
       gradientTransform="matrix(-0.8354,0.0233,-0.0254,-0.7643,829.37866,-291.83087)"
       x1="554.18158"
       y1="-492.42679"
       x2="568.58649"
       y2="-491.98801" /><linearGradient
       inkscape:collect="always"
       xlink:href="#path19023_1_"
       id="linearGradient3245"
       gradientUnits="userSpaceOnUse"
       gradientTransform="matrix(-0.8358,0,0,-0.8358,805.96166,-307.55147)"
       x1="619.30573"
       y1="-510.19781"
       x2="593.67719"
       y2="-510.755" /><linearGradient
       inkscape:collect="always"
       xlink:href="#path19017_1_"
       id="linearGradient3249"
       gradientUnits="userSpaceOnUse"
       gradientTransform="matrix(-0.3229,0,0,-0.3111,440.60706,-170.70247)"
       x1="-116.4907"
       y1="-1179.6943"
       x2="721.50342"
       y2="-1179.6943" /><linearGradient
       inkscape:collect="always"
       xlink:href="#path19015_1_"
       id="linearGradient3252"
       gradientUnits="userSpaceOnUse"
       gradientTransform="matrix(-0.8363,0,0,-0.6916,815.58206,-269.92687)"
       x1="501.19821"
       y1="-667.50537"
       x2="673.03778"
       y2="-667.50537" /><linearGradient
       inkscape:collect="always"
       xlink:href="#path19013_1_"
       id="linearGradient3255"
       gradientUnits="userSpaceOnUse"
       gradientTransform="matrix(-0.8358,0,0,-0.8358,815.25946,-307.26237)"
       x1="501.21881"
       y1="-504.05371"
       x2="673.05408"
       y2="-504.05371" /><linearGradient
       inkscape:collect="always"
       xlink:href="#path19009_1_"
       id="linearGradient3259"
       gradientUnits="userSpaceOnUse"
       gradientTransform="matrix(-0.3111,0,0,-0.3111,435.24956,-170.70247)"
       x1="90.9702"
       y1="-904.46832"
       x2="646.03918"
       y2="-904.46832" /><linearGradient
       inkscape:collect="always"
       xlink:href="#path19005_1_"
       id="linearGradient3262"
       gradientUnits="userSpaceOnUse"
       gradientTransform="matrix(-0.3735,0,0,-0.2111,416.51376,-174.50237)"
       x1="343.64941"
       y1="-1314.2461"
       x2="965.63751"
       y2="-1314.2461" /><linearGradient
       inkscape:collect="always"
       xlink:href="#path19003_1_"
       id="linearGradient3265"
       gradientUnits="userSpaceOnUse"
       gradientTransform="matrix(-0.3742,0,0,-0.6546,416.78076,-286.02007)"
       x1="404.70999"
       y1="-608.59772"
       x2="870.54791"
       y2="-608.59772" /><linearGradient
       inkscape:collect="always"
       xlink:href="#path19001_1_"
       id="linearGradient3268"
       gradientUnits="userSpaceOnUse"
       gradientTransform="matrix(0.3071,0,0,-0.3061,59.23296,-174.94197)"
       x1="952.62402"
       y1="-1053.5269"
       x2="-64.178497"
       y2="-1053.527" /><linearGradient
       inkscape:collect="always"
       xlink:href="#path18999_1_"
       id="linearGradient3271"
       gradientUnits="userSpaceOnUse"
       gradientTransform="matrix(0.3157,0,0,-0.3111,53.96996,-175.87437)"
       x1="961.58112"
       y1="-1041.6514"
       x2="-55.2145"
       y2="-1041.6515" /><linearGradient
       inkscape:collect="always"
       xlink:href="#path18997_1_"
       id="linearGradient3274"
       gradientUnits="userSpaceOnUse"
       gradientTransform="matrix(-0.3127,0,0,-0.3111,436.39666,-170.70247)"
       x1="431.13959"
       y1="-1050.063"
       x2="1308.8018"
       y2="-1056.051" /></defs><sodipodi:namedview
     pagecolor="#ffffff"
     bordercolor="#666666"
     borderopacity="1"
     objecttolerance="10"
     gridtolerance="10"
     guidetolerance="10"
     inkscape:pageopacity="0"
     inkscape:pageshadow="2"
     inkscape:window-width="1032"
     inkscape:window-height="720"
     id="namedview131"
     showgrid="false"
     inkscape:zoom="0.69189189"
     inkscape:cx="277.5"
     inkscape:cy="153.05541"
     inkscape:window-x="0"
     inkscape:window-y="0"
     inkscape:window-maximized="0"
     inkscape:current-layer="Layer_1" /><g
     id="carroceria"><path
       style="fill:url(#linearGradient3274);stroke:#b7bec9;stroke-width:0.2005"
       d="M 263.93266,113.40613 V 200.58313 H 67.51766 36.81766 C 32.17166,199.53113 28.54766,195.80113 27.59466,191.11713 V 113.40613 H 263.93266 z"
       inkscape:connector-curvature="0"
       sodipodi:nodetypes="ccccccc"
       id="path18997" /><path
       style="fill:url(#linearGradient3271);stroke:#b7bec9;stroke-width:0.2015"
       d="M 256.44066,112.01013 V 174.81713 C 255.47466,179.50113 251.82166,183.23713 247.12966,184.28713 H 216.12766 158.61566 132.01966 74.49866 45.36666 C 40.67266,183.23713 37.01866,179.50113 36.05566,174.81713 V 112.01013 H 132.01966 158.61566 256.44066 z"
       inkscape:connector-curvature="0"
       sodipodi:nodetypes="ccccccccccccc"
       id="path18999" /><path
       style="fill:url(#linearGradient3268);stroke:#b7bec9;stroke-width:0.1971"
       d="M 253.44866,112.01013 V 173.82113 C 252.50866,178.42513 248.94866,182.10513 244.38666,183.13713 H 214.22766 158.28566 132.40566 76.45366 48.10766 C 43.54466,182.10513 39.99066,178.42513 39.04766,173.82113 V 112.01013 H 132.40466 158.28466 253.44866 z"
       inkscape:connector-curvature="0"
       sodipodi:nodetypes="ccccccccccccc"
       id="path19001" /><path
       style="fill:url(#linearGradient3265);stroke:#b7bec9;stroke-width:0.20020001"
       d="M 263.95466,103.63013 V 121.12813 H 27.42266 V 103.63013 H 263.95466 z"
       inkscape:connector-curvature="0"
       sodipodi:nodetypes="ccccc"
       id="path19003" /><path
       style="fill:url(#linearGradient3262);stroke:#b7bec9;stroke-width:0.18269999"
       d="M 263.94766,100.12113 V 105.76413 C 263.94766,105.76413 112.29066,105.76413 28.05166,105.76413 25.97866,105.76413 25.41766,100.12113 25.41766,100.12113 H 263.94766 z"
       inkscape:connector-curvature="0"
       sodipodi:nodetypes="ccscc"
       id="path19005" /><path
       style="fill:url(#linearGradient3259);stroke:#b7bec9;stroke-width:0.2"
       d="M 293.23866,20.71713 C 313.34666,20.82813 343.23066,22.39813 359.83266,30.02013 368.54966,34.02313 376.40066,41.30913 380.74166,49.85713 386.82966,61.84813 388.19866,84.37713 388.48066,98.34213 422.16066,100.55913 457.27266,105.31713 478.29066,114.97313 485.84166,118.43913 492.07966,125.18313 496.15266,132.42213 505.13766,148.38213 508.58366,185.93213 508.58366,185.93213 509.75066,192.54413 506.30666,200.41113 500.18766,200.41513 L 384.69466,200.49913 V 200.58213 H 293.07566 264.67366 C 264.68566,144.83913 264.74166,89.34013 264.67366,33.64013 264.66366,27.84113 266.78266,20.78813 272.57566,21.12713 272.57566,21.12813 281.17066,20.65113 293.23866,20.71713 L 293.23866,20.71713 z M 306.98366,35.69913 C 300.08266,35.67313 295.45866,35.94613 295.45866,35.94613 290.66466,35.69913 288.86566,40.79313 288.87666,45.00213 L 288.95866,88.79413 C 288.96766,92.99913 294.52366,94.56313 299.33066,94.55613 L 365.26566,94.85613 C 370.07366,94.84713 372.76866,89.93013 371.85266,85.80113 371.85266,85.80113 371.48766,63.73013 366.58266,55.37313 362.78966,48.91013 356.51166,43.88913 349.29466,40.96613 336.31666,36.58413 318.49366,35.74513 306.98366,35.69913 z"
       inkscape:connector-curvature="0"
       sodipodi:nodetypes="ssscssccccccccssscccccscss"
       id="path19009" /><path
       style="fill:#b7bec9"
       d="M 394.16066,98.75713 405.76766,168.31413 H 405.19166 L 393.58266,98.75713 C 393.77366,98.76913 393.97166,98.74313 394.16066,98.75713 z"
       inkscape:connector-curvature="0"
       id="path19011" /><path
       style="fill:url(#linearGradient3255);stroke:#acb6c1;stroke-width:0.2"
       d="M 300.24066,33.30913 C 315.67366,33.47613 338.61166,34.61313 351.33566,39.76713 358.41066,42.63113 364.54066,47.56513 368.28866,53.89213 374.00066,63.54013 374.90066,75.88313 375.21066,86.90513 376.32066,121.53213 376.68366,194.75013 376.68366,194.75013 H 276.29066 C 276.29066,194.75013 276.34666,92.81913 276.29066,43.72213 276.29066,43.69613 276.29066,43.66813 276.29066,43.64113 V 42.35113 C 276.28166,38.22413 278.03966,33.22813 282.74566,33.47013 282.74566,33.47013 290.98266,33.21013 300.24066,33.31113 V 33.30913 z M 307.42666,39.16113 C 300.65666,39.13213 296.12766,39.40213 296.12766,39.40213 291.41966,39.16113 289.65966,44.15513 289.66966,48.28113 L 290.21266,87.87613 C 290.22666,92.00013 295.67266,93.53613 300.38666,93.52613 L 365.03866,93.36513 C 369.75366,93.35613 372.39766,88.53413 371.49666,84.48713 371.49666,84.48713 370.67666,66.64913 365.86666,58.45213 362.14666,52.11413 355.98766,47.19213 348.91466,44.32813 336.18966,40.02713 318.70866,39.20413 307.42666,39.16113 L 307.42666,39.16113 z"
       inkscape:connector-curvature="0"
       sodipodi:nodetypes="ssscccccccssccccccscscc"
       id="path19013" /><path
       style="fill:url(#linearGradient3252);stroke:#acb6c1;stroke-width:0.1604"
       d="M 376.69566,188.68013 C 376.70366,189.58313 376.78066,194.74013 376.78066,194.74013 H 276.29066 C 276.29066,194.74013 276.29066,189.05813 276.29066,188.68013 H 376.69566 L 376.69566,188.68013 z"
       inkscape:connector-curvature="0"
       id="path19015" /><path
       style="fill:url(#linearGradient3249);stroke:#b7bec9;stroke-width:0.2062"
       d="M 396.22966,192.10513 C 395.16766,195.49813 394.64466,199.05013 394.77766,200.41613 H 188.26666 C 188.47766,198.27013 188.61066,196.12713 188.61066,193.92013 188.61066,193.31313 188.54166,192.71013 188.52766,192.10613 H 396.22966 L 396.22966,192.10513 z"
       inkscape:connector-curvature="0"
       id="path19017" /><path
       style="fill:#989898"
       d="M 293.97866,116.03513 C 294.47866,116.03513 294.91066,116.39613 295.21266,116.94113 295.66566,116.94713 296.21466,116.94113 296.61166,116.94113 297.63966,116.94113 302.54866,117.07613 303.85466,117.27013 307.76966,117.85313 312.08766,119.00013 312.08766,119.00013 312.08766,119.00013 307.76966,120.14513 303.85466,120.72913 302.54866,120.92413 297.63966,121.05913 296.61166,121.05913 296.21566,121.05913 295.66566,121.05313 295.21266,121.05913 294.90966,121.60313 294.47866,121.96313 293.97866,121.96313 H 286.40366 C 285.49166,121.96313 284.75966,120.81813 284.75966,119.41213 V 119.00113 118.58713 C 284.75966,117.18313 285.49166,116.03613 286.40366,116.03613 H 293.97866 z"
       inkscape:connector-curvature="0"
       id="path19021" /><path
       style="fill:url(#linearGradient3245)"
       d="M 297.10766,116.94113 C 298.13766,116.94113 303.04666,117.07613 304.34966,117.27013 308.26566,117.85313 312.58366,119.00013 312.58366,119.00013 312.58366,119.00013 308.26566,120.14513 304.34966,120.72913 303.04666,120.92413 298.13766,121.05913 297.10766,121.05913 292.99066,121.05913 285.25266,121.46013 285.25266,119.00113 285.25266,116.54013 292.98966,116.94113 297.10766,116.94113 z"
       inkscape:connector-curvature="0"
       sodipodi:nodetypes="scccsss"
       id="path19023" /><path
       style="fill:#b7bec9"
       d="M 367.90066,104.51813 C 397.89666,105.86013 431.08066,109.35113 451.94866,117.19413 458.76966,119.75913 465.33366,124.44713 468.82366,130.36613 473.90266,138.98113 475.05766,154.98813 475.24266,165.76713 475.25266,166.04613 475.23966,166.39013 475.24266,166.67113 475.26666,168.61613 475.34666,170.21513 475.32566,171.69013 475.32266,171.81013 475.32766,171.97813 475.32566,172.09913 475.27566,174.69613 475.15866,176.79213 475.15866,176.79213 475.15866,176.79813 475.15866,176.86713 475.15866,176.87713 475.24766,177.27213 475.31266,177.69813 475.32566,178.11113 475.34066,178.54913 475.31366,178.99013 475.24266,179.42513 475.18466,179.87613 475.06366,180.31213 474.91466,180.74213 474.47766,181.99713 473.72966,183.14213 472.61066,183.95413 472.25166,184.22713 471.79366,184.41813 471.37466,184.61013 471.74766,184.41313 472.12266,184.12913 472.44466,183.87213 472.76766,183.60913 473.08466,183.36313 473.34966,183.05113 473.36766,183.03213 473.33266,182.98113 473.34966,182.96413 473.90266,182.30313 474.30866,181.55513 474.58666,180.74213 474.72366,180.33813 474.85066,179.84613 474.91566,179.42513 474.94966,179.10713 475.01366,178.76113 474.99466,178.44213 474.99866,178.04513 474.90366,177.67213 474.83266,177.28813 474.83266,177.28813 474.83266,176.97013 474.83266,176.95513 474.83266,176.95513 474.94966,174.89913 474.99466,172.34813 474.99966,172.15713 474.99466,171.88213 474.99466,171.69013 475.01266,170.33213 475.01866,168.64513 474.99466,166.91613 474.80666,156.77313 473.56566,141.76513 468.49166,133.65913 465.01066,128.09513 458.51066,123.55913 451.70066,121.14513 430.86766,113.76913 397.76866,110.63813 367.81966,109.37713 L 276.44466,109.45613 V 108.38613 L 367.90066,108.30313 C 397.89666,109.58513 431.07866,112.84213 451.94866,120.32213 458.76966,122.76913 465.33366,127.27613 468.82266,132.91713 470.34766,135.38513 471.54066,138.48113 472.44466,141.89213 471.50066,137.79813 470.22266,134.00213 468.49066,131.10813 465.00966,125.27413 458.50966,120.63013 451.69966,118.10313 430.86666,110.36713 397.76766,106.99713 367.81866,105.67313 L 276.44366,105.83713 V 104.68413 L 367.90066,104.51813 367.90066,104.51813 z"
       inkscape:connector-curvature="0"
       id="path19025" /><path
       style="fill:#b7bec9"
       d="M 287.56366,38.08413 C 286.33266,39.90913 285.78866,42.53313 285.79466,44.91913 L 285.86766,91.26313 C 285.87266,95.47113 290.85566,97.03213 295.16966,97.02513 L 368.33666,96.86313 C 369.75566,96.86113 370.92266,96.32313 371.88066,95.46413 370.83166,96.98113 369.27966,98.09413 367.30266,98.09913 L 294.13466,98.17913 C 289.82566,98.18513 284.83766,96.62413 284.83166,92.41613 L 284.75866,46.07213 C 284.75366,43.10713 285.58466,39.75513 287.56366,38.08413 L 287.56366,38.08413 z"
       inkscape:connector-curvature="0"
       id="path19027" /><path
       inkscape:connector-curvature="0"
       style="fill:url(#linearGradient3240);stroke:#b7bec9;stroke-width:0.1913"
       d="M 376.86766,91.83713 374.32266,91.91113 C 373.47166,91.93413 372.80666,92.64213 372.83466,93.49313 L 373.10366,101.63613 C 373.13266,102.48813 373.84666,103.15713 374.69766,103.13413 L 377.24166,103.06313 C 378.09366,103.03813 378.76066,102.33013 378.73066,101.48013 L 378.46066,93.33713 C 378.43266,92.48513 377.71866,91.81313 376.86766,91.83713 z"
       id="rect19029" /><path
       inkscape:connector-curvature="0"
       style="fill:url(#linearGradient3237);stroke:#b7bec9;stroke-width:0.1913"
       d="M 377.85466,165.21513 375.31066,165.28513 C 374.46166,165.30913 373.79266,166.01813 373.82166,166.86413 L 374.09266,175.01213 C 374.12166,175.86113 374.83166,176.53313 375.68366,176.50813 L 378.23066,176.43413 C 379.07966,176.41213 379.74666,175.70513 379.71866,174.85513 L 379.44966,166.71113 C 379.42066,165.86113 378.70566,165.18813 377.85466,165.21513 z"
       id="rect19031" /><path
       style="fill:url(#linearGradient3234);stroke:#b7bec9;stroke-width:0.2"
       d="M 512.53366,121.88713 C 515.99566,121.88713 518.78966,128.83313 518.78966,137.36213 518.78966,145.89813 515.99566,152.83913 512.53366,152.83913 512.45266,152.83913 512.36466,152.84713 512.28766,152.83913 V 121.88713 C 512.36466,121.88013 512.45366,121.88713 512.53366,121.88713 z"
       inkscape:connector-curvature="0"
       id="path19063" /><path
       style="fill:url(#linearGradient3230);stroke:#b7bec9;stroke-width:0.2"
       d="M 514.05466,122.57713 C 512.70666,126.96413 511.82066,133.91513 511.53766,139.31413 511.21866,145.29413 511.71566,150.96213 512.80666,155.82613 L 459.19466,135.56813 C 487.09466,124.05813 490.67566,120.82413 514.05466,122.57713 z"
       inkscape:connector-curvature="0"
       sodipodi:nodetypes="csccc"
       id="path19065" /><path
       style="fill:url(#linearGradient3226);stroke:#b2bac6;stroke-width:0.2036"
       d="M 515.41466,120.25613 C 514.13766,124.59513 513.21166,130.24013 512.94366,136.55113 512.73566,141.57613 512.97566,146.23913 513.52266,150.20213 H 508.66666 C 508.11866,146.24313 507.87866,141.57113 508.08966,136.55113 508.35366,130.26713 509.29266,124.60513 510.55766,120.25613 H 515.41466 z"
       inkscape:connector-curvature="0"
       id="path19067" /></g><g
     id="rueda-trasera"><path
       inkscape:connector-curvature="0"
       id="path19075-7"
       d="M 90.994455,196.80078 C 90.754517,214.07886 101.85993,230.74205 117.8305,237.28696 133.51979,244.12017 153.00948,240.58452 165.24897,228.60695 177.65165,217.08276 182.177,198.09668 176.3883,182.19921 170.79059,165.72108 154.60343,153.57168 137.19469,152.91883 120.27136,151.82498 103.35576,161.63418 95.801376,176.79743 92.635753,182.95753 90.983915,189.87644 90.994455,196.80078 z"
       style="fill:#010101" /><path
       inkscape:connector-curvature="0"
       id="path19093"
       d="M 117.45421,207.11716 C 113.20299,199.98944 113.83292,190.39186 118.9076,183.84019 123.84556,177.1687 132.92913,173.96148 140.95331,176.123 148.94295,178.05113 155.34029,185.07559 156.56495,193.19549 157.97796,201.34376 154.06174,210.10392 146.99313,214.41994 140.08809,218.90129 130.57525,218.70362 123.83244,213.99905 121.2223,212.22556 119.02816,209.85153 117.45421,207.11716 z M 119.39084,206.00023 C 121.04292,208.87944 123.47387,211.3047 126.35918,212.94654 128.20577,209.02049 130.05236,205.09443 131.89895,201.16838 130.50543,200.43748 130.38143,198.34177 129.49879,197.59977 125.29001,197.23796 121.08123,196.87616 116.87245,196.51436 116.84982,199.82656 117.72691,203.13582 119.39084,206.00023 z M 117.12395,193.43708 C 121.44744,193.8012 125.77093,194.16533 130.09442,194.52945 130.33503,192.98592 132.23836,192.13579 132.63615,191.04526 131.54503,186.97202 130.4539,182.89877 129.36278,178.82552 123.01575,181.02612 118.20009,186.81622 117.12395,193.43708 z M 129.15447,214.26501 C 135.41081,216.65788 142.88443,215.35107 147.94584,210.9574 144.87816,207.89254 141.81048,204.82769 138.7428,201.76283 137.56532,202.80224 135.55021,202.23394 134.53851,202.81012 132.74383,206.62842 130.94915,210.44671 129.15447,214.26501 z M 135.74089,190.58167 C 137.47395,190.26942 139.00817,191.93372 140.27321,192.16141 143.92736,190.05187 147.58152,187.94234 151.23567,185.8328 147.19212,179.82578 139.47935,176.63152 132.37147,177.99311 133.49461,182.1893 134.61775,186.38548 135.74089,190.58167 z M 140.93009,199.57216 C 144.002,202.64323 147.07392,205.71429 150.14583,208.78536 154.87266,203.30733 155.9602,195.03576 152.79293,188.52733 149.03539,190.69599 145.27785,192.86464 141.52031,195.0333 141.93448,196.54675 141.71577,198.21441 140.93009,199.57216 z"
       style="fill:#c8beb7" /></g><path
     id="path19099"
     sodipodi:nodetypes="ssccsccss"
     inkscape:connector-curvature="0"
     d="M 135.96491,132.35481 C 166.82091,132.35481 191.81891,160.18281 191.81891,194.48381 191.81891,196.69281 191.69091,198.86281 191.48891,201.01081 H 179.50191 C 178.85791,174.88281 159.61691,153.92681 135.96491,153.92681 112.31391,153.92681 93.05491,174.88281 92.40291,201.01081 H 43.16491 C 42.95991,198.86281 44.17891,191.16181 46.82891,187.49981 68.16391,158.04981 105.11591,132.35481 135.96491,132.35481 L 135.96491,132.35481 z"
     style="fill:url(#linearGradient3218);stroke:#b7bec9;stroke-width:0.2" /><g
     id="rueda-delantera"><path
       inkscape:connector-curvature="0"
       id="path19075-7-5"
       d="M 425.55305,195.17188 C 425.19264,214.63542 439.53182,233.12289 458.42914,237.73823 475.44752,242.27737 494.82179,235.48311 505.03507,221.0698 515.61403,206.75139 516.30529,185.93037 506.30355,171.12482 497.19404,157.05591 479.68237,149.00027 463.07537,151.66399 445.97184,154.09083 430.97127,167.39889 426.92148,184.25376 426.01089,187.8167 425.54743,191.49422 425.55305,195.17188 z"
       style="fill:#010101" /><path
       inkscape:connector-curvature="0"
       id="path19093-0"
       d="M 452.0128,205.48825 C 446.38982,196.34863 449.50601,183.10314 458.58151,177.39149 467.2718,171.25199 480.56241,173.36869 486.90426,181.9187 493.6809,190.13209 492.58048,203.55256 484.53089,210.53415 476.91718,217.82717 463.63538,217.82565 456.03716,210.50715 454.4488,209.05381 453.08815,207.3531 452.0128,205.48825 z M 453.94944,204.37132 C 455.61907,206.73626 457.26658,209.51497 460.06242,210.6495 461.41573,211.26723 461.56873,209.73754 462.04705,208.91667 463.51722,205.79094 464.98738,202.6652 466.45755,199.53947 465.0361,197.70756 463.92176,194.87369 461.04894,195.71224 457.84297,195.43665 454.63701,195.16105 451.43105,194.88545 451.40805,198.1961 452.28601,201.50854 453.94944,204.37132 z M 451.68255,191.80818 C 456.00604,192.1723 460.32952,192.53643 464.65301,192.90055 465.64183,191.02979 468.24337,189.17809 466.51825,186.89096 465.65263,183.65951 464.787,180.42807 463.92138,177.19662 457.596,179.37519 452.74118,185.21166 451.68255,191.80818 z M 463.71306,212.63611 C 469.95697,215.03061 477.45628,213.7183 482.50444,209.3285 479.43675,206.26365 476.36908,203.19878 473.3014,200.13393 471.08237,200.83929 468.02841,200.92528 467.81308,203.91307 466.44642,206.82075 465.07974,209.72843 463.71306,212.63611 z M 470.29949,188.95276 C 472.50561,188.91155 475.02905,191.70468 476.88952,189.34459 479.85777,187.63103 482.82601,185.91746 485.79426,184.2039 481.76545,178.20487 474.02238,174.99733 466.93006,176.36421 468.0532,180.56039 469.17635,184.75658 470.29949,188.95276 z M 475.48869,197.94325 C 478.5606,201.01432 481.63252,204.08538 484.70443,207.15645 489.42816,201.6937 490.51927,193.39095 487.35153,186.89842 483.59399,189.06708 479.83645,191.23574 476.07891,193.4044 476.49325,194.91582 476.27397,196.58759 475.48869,197.94325 z"
       style="fill:#c8beb7" /></g><path
     id="path19069"
     sodipodi:nodetypes="ssccsccss"
     inkscape:connector-curvature="0"
     d="M 470.48772,130.35481 C 501.34073,130.35481 526.33973,158.18281 526.33973,192.48381 526.33973,194.69281 526.21172,196.86281 526.00972,199.01081 H 514.02373 C 513.37773,172.88281 494.14172,151.92681 470.48772,151.92681 446.83573,151.92681 427.57372,172.88281 426.92673,199.01081 H 377.68573 C 377.48473,196.86281 378.69972,189.16181 381.35072,185.49981 402.67972,156.04981 439.63672,130.35481 470.48772,130.35481 L 470.48772,130.35481 z"
     style="fill:url(#linearGradient3222);stroke:#b7bec9;stroke-width:0.2" /></svg>